<?xml version="1.0" encoding="iso-8859-1"?>
<!-- Generator: Adobe Illustrator 19.0.0, SVG Export Plug-In . SVG Version: 6.00 Build 0)  -->
<svg version="1.1" id="Layer_1" xmlns="http://www.w3.org/2000/svg" xmlns:xlink="http://www.w3.org/1999/xlink" x="0px" y="0px"
	 viewBox="0 0 473.931 473.931" style="enable-background:new 0 0 473.931 473.931;" xml:space="preserve">
<circle style="fill:#9CBDBF;" cx="236.966" cy="236.966" r="236.966"/>
<g>
	<path style="fill:#626463;" d="M248.831,242.915L146.729,345.013l-16.808-13.212l103.894-103.901L248.831,242.915z"/>
	<path style="fill:#4C4D4D;" d="M149.278,346.891c-26.873,32.273-64.512,18.817-71.224-14.769
		c-2.638-13.19,17.467-30.926,24.19-18.814c-5.377,45.694,26.716,15.951,26.716,15.951s8.509,1.497,13.721,6.705
		C147.901,341.181,149.278,346.891,149.278,346.891z"/>
	<path style="fill:#E84849;" d="M343.868,130.569c117.458,117.461,0.06,263.562,0.06,263.562
		c-1.639-42.817-42.158-83.329-83.333-83.329c0,0-8.887-35.289-34.626-61.024c-25.732-25.732-57.777-31.386-57.777-31.386
		c2.114-39.064-35.442-80.366-82.236-82.236C85.959,136.163,226.406,13.107,343.868,130.569z"/>
	<path style="fill:#F06668;" d="M343.868,130.569c22.436,22.439-65.99,158.37-83.273,180.237c0,0-8.887-35.289-34.626-61.024
		c-25.732-25.732-57.777-31.386-57.777-31.386C188.128,199.196,327.37,114.075,343.868,130.569z"/>
	<path style="fill:#4B4A4B;" d="M351.98,141.801c-3.409,3.427-10.514,1.86-15.861-3.484c-5.347-5.347-6.911-12.453-3.495-15.865
		c3.42-3.409,10.518-1.852,15.858,3.495C353.836,131.295,355.392,138.396,351.98,141.801z"/>
</g>
<g>
</g>
<g>
</g>
<g>
</g>
<g>
</g>
<g>
</g>
<g>
</g>
<g>
</g>
<g>
</g>
<g>
</g>
<g>
</g>
<g>
</g>
<g>
</g>
<g>
</g>
<g>
</g>
<g>
</g>
</svg>
